<?xml version="1.0" encoding="utf-8"?>
<!-- Generator: Adobe Illustrator 19.0.0, SVG Export Plug-In . SVG Version: 6.00 Build 0)  -->
<svg version="1.1" id="Layer_1" xmlns="http://www.w3.org/2000/svg" xmlns:xlink="http://www.w3.org/1999/xlink" x="0px" y="0px"
	 viewBox="0 0 219.1 208.6" style="enable-background:new 0 0 219.1 208.6;" xml:space="preserve">
<style type="text/css">
	.st0{fill:none;stroke:#E74C3C;stroke-width:6;stroke-miterlimit:10;}
	.st1{fill:none;stroke:#2C3E50;stroke-width:6;stroke-miterlimit:10;}
</style>
<g id="XMLID_113_">
	<path id="XMLID_117_" class="st0" d="M140,137.7V36.3c0-8.8,7.1-15.9,15.9-15.9h36.4c5.7,0,7.9,7.5,3.1,10.6l0,0
		c-3.5,2.2-7.6,3.4-11.7,3.4h-51.7c-6.6,0-12,5.4-12,12v111.1c0,3.5,4.3,5.2,6.7,2.6l8.1-8.9C138.1,147.5,140,142.7,140,137.7z"/>
	<path id="XMLID_118_" class="st1" d="M29.7,130.9c3.6,1.8,5.9,5.5,6.1,9.5c0.7,14.4,5.5,47.9,35.1,47.9c33.5,0,34.9-38.2,34.8-46.5
		c0-2,0-4,0-6.1V63c0-7.6-2.7-14.9-7.7-20.6l0,0c-3.9-4.6-11.5-1.8-11.5,4.2l-0.1,72.6c0,2.2,0,4.3,0.1,6.5
		c0.2,9.4-1.1,46.8-33.9,46.8c-23.9,0-31.6-19.5-33.9-33.6C17.7,132.8,24.1,128.1,29.7,130.9L29.7,130.9z"/>
</g>
</svg>
